<svg xmlns="http://www.w3.org/2000/svg" viewBox="0 0 23.16 23.16"><defs><style>.cls-1{fill:#737aae;}</style></defs><g id="Camada_2" data-name="Camada 2"><g id="Conteúdo"><path class="cls-1" d="M4.34,6V1.69A2.46,2.46,0,0,1,4.44,1H1.69A1.69,1.69,0,0,0,0,2.65V7A1.7,1.7,0,0,0,1.69,8.69h.36l1.23,1.64a.77.77,0,0,0,.55.29h0a.67.67,0,0,0,.54-.26L5.85,8.71A3.16,3.16,0,0,1,4.34,6Z"/><path class="cls-1" d="M21.47,1H18.72a2.46,2.46,0,0,1,.1.72V6a3.16,3.16,0,0,1-1.51,2.68l1.45,1.65a.69.69,0,0,0,.54.26h0a.75.75,0,0,0,.55-.29l1.23-1.64h.36A1.7,1.7,0,0,0,23.16,7V2.65A1.69,1.69,0,0,0,21.47,1Z"/><path class="cls-1" d="M11.58,9.65h0A.72.72,0,0,1,11,9.36L9.77,7.72H7.48A1.69,1.69,0,0,1,5.79,6V1.69A1.69,1.69,0,0,1,7.48,0h8.2a1.69,1.69,0,0,1,1.69,1.69V6a1.69,1.69,0,0,1-1.69,1.69H13.6L12.13,9.4a.73.73,0,0,1-.55.25Z"/><path class="cls-1" d="M5.79,14.48a1.93,1.93,0,1,1-1.93-1.93,1.93,1.93,0,0,1,1.93,1.93Z"/><path class="cls-1" d="M6.44,17.76A4,4,0,0,0,4.83,21v.24H.72A.73.73,0,0,1,0,20.51V20a2.66,2.66,0,0,1,2.65-2.66H5.07a2.67,2.67,0,0,1,1.37.39Z"/><path class="cls-1" d="M21.23,14.48a1.93,1.93,0,1,1-1.93-1.93,1.93,1.93,0,0,1,1.93,1.93Z"/><path class="cls-1" d="M23.16,20v.48a.73.73,0,0,1-.72.72h-4.1V21a4,4,0,0,0-1.62-3.23,2.68,2.68,0,0,1,1.38-.39h2.41A2.66,2.66,0,0,1,23.16,20Z"/><path class="cls-1" d="M14.48,14a2.9,2.9,0,1,1-2.9-2.89A2.9,2.9,0,0,1,14.48,14Z"/><path class="cls-1" d="M14.23,18.34H8.93A2.66,2.66,0,0,0,6.27,21v1.45a.73.73,0,0,0,.73.72h9.17a.72.72,0,0,0,.72-.72V21a2.66,2.66,0,0,0-2.66-2.65Z"/></g></g></svg>