<svg id="Layer_1" data-name="Layer 1" xmlns="http://www.w3.org/2000/svg" viewBox="0 0 26.3 26.3"><defs><style>.cls-1{fill:#737aae;}.cls-2{isolation:isolate;}.cls-3{fill:#25294a;}</style></defs><title>Telas_de_Baixa</title><path class="cls-1" d="M26.3,23.38V2.92A2.94,2.94,0,0,0,23.38,0H2.92A2.94,2.94,0,0,0,0,2.92V23.38A2.94,2.94,0,0,0,2.92,26.3H23.38A2.92,2.92,0,0,0,26.3,23.38ZM8.62,16l3.07,3.7,4.53-5.83a.73.73,0,0,1,1-.15.54.54,0,0,1,.15.15l5.13,6.83a.73.73,0,0,1-.14,1,.74.74,0,0,1-.45.15H4.41a.73.73,0,0,1-.73-.73.79.79,0,0,1,.16-.45L7.48,16a.72.72,0,0,1,1-.14A.8.8,0,0,1,8.62,16Z"/><g class="cls-2"><path class="cls-3" d="M11.36,4v7.06H10.12V4H8.79V2.81h3.9V4Z"/><path class="cls-3" d="M15.22,2.81a1.83,1.83,0,0,1,2,2.09v.15c0,.92-.27,1.46-.93,1.68v0c.78.23,1.11.84,1.11,1.93V9a1.87,1.87,0,0,1-2.07,2.08H13.48V2.81Zm-.49,3.4h.39c.59,0,.84-.3.84-1V4.94c0-.67-.25-1-.79-1h-.44Zm0,3.69h.54c.6,0,.87-.32.87-1V8.43c0-.73-.27-1.06-.93-1.06h-.48Z"/></g></svg>