<svg xmlns="http://www.w3.org/2000/svg" viewBox="0 0 48 52.92"><defs><style>.cls-1{fill:#737aae;}</style></defs><g id="Camada_2" data-name="Camada 2"><g id="Conteúdo"><path class="cls-1" d="M38.88,36.72c4.6-7.07,4.48-14.06,0-21.11H48c.08-.53-.32-.55-.53-.68Q36.28,7.79,25.09.68C24.8.49,24.4.41,24.29,0h-.46A21.27,21.27,0,0,1,20.6,2.18Q10.31,8.75,0,15.28c.37.36.85.19,1.27.19,2.59,0,5.19,0,8,0-4.45,7.08-4.84,14.05-.09,21.11H.05a2.26,2.26,0,0,0,1.07.95l22,14.75c.26.17.64.25.73.63h.46c.11-.4.51-.5.8-.69q11-7.38,22-14.74c.3-.2.69-.31.87-.77Zm-8.55,1.33a6.45,6.45,0,0,1-6,5.19,6.31,6.31,0,0,1-6.36-4.41,6,6,0,0,1,2.25-7c0,2.05,0,4,0,5.89,0,.65.08.93.84.91q2.94-.09,5.87,0c.74,0,.87-.24.86-.9,0-1.94,0-3.88,0-5.88A5.78,5.78,0,0,1,30.33,38.05Zm1.27-1.31c-.74-4.12-2.63-7.44-7.17-7.53-5.16-.1-7,2.65-7.93,7.09-1-1.36-.41-4.91,1.12-6.74,2.22-2.69,6.78-3.53,10.23-1.91S32.56,32.48,31.6,36.74Zm1.77-.43c.12-7-2.83-11.24-10.1-11.35a8.36,8.36,0,0,0-6.75,3.57A10.08,10.08,0,0,0,14.61,36c-2.16-3.23-1.18-7.83,2.15-10.94a10.57,10.57,0,0,1,13.57-.91A9.8,9.8,0,0,1,33.37,36.31ZM36,34.67c.34-4.21-.39-7.83-3.18-10.72a11.56,11.56,0,0,0-10.2-3.73C15.7,21.14,12,26,11.85,34c-2.21-4-.76-10,3.46-14s12.18-4.29,16.41-.85C36.36,22.92,38.48,29.87,36,34.67Zm2.35-2.58a17.19,17.19,0,0,0-1.82-10.24,12.72,12.72,0,0,0-10.79-7,15,15,0,0,0-15.37,8.93,15.22,15.22,0,0,0-1.06,6.74c0,.67.08,1.33.11,2a16.28,16.28,0,0,1,5.39-19.14,15.51,15.51,0,0,1,19.3.52,17.17,17.17,0,0,1,4.4,19.47A1.76,1.76,0,0,1,38.33,32.09Z"/></g></g></svg>